<?xml version="1.0" encoding="utf-8"?>
<!-- Generator: Adobe Illustrator 24.3.0, SVG Export Plug-In . SVG Version: 6.00 Build 0)  -->
<svg version="1.1" id="Layer_1" xmlns="http://www.w3.org/2000/svg" xmlns:xlink="http://www.w3.org/1999/xlink" x="0px" y="0px"
	 viewBox="0 0 489.43 204.05" style="enable-background:new 0 0 489.43 204.05;" xml:space="preserve">
<style type="text/css">
	.st0{fill:#E42313;}
</style>
<g>
	<path d="M287.04,86.21c0,5.32-5.03,9.89-13.01,9.89c-7.98,0-12.26-3.53-13.87-5.2l5.2-4.22c1.39,1.85,3.99,3.7,8.32,3.7
		c4.16,0,5.67-2.14,5.67-3.41c0-1.68-1.62-2.31-4.28-2.77l-3.58-0.64c-2.25-0.4-10.06-1.85-10.06-8.67c0-5.72,5.49-9.42,12.43-9.42
		c2.25,0,8.09,0.35,12.43,5.38l-4.91,4.57c-1.56-3.06-4.51-4.39-7.86-4.39c-1.33,0-4.8,0.4-4.8,3.01c0,1.91,1.73,2.49,5.9,3.24
		l4.68,0.87C283.68,78.92,287.04,81.52,287.04,86.21z M369.63,54.41h-7.05v40.81h7.05V54.41z M428.5,95.22V82.68
		c0-4.97,0.64-7.4,2.72-9.13c1.45-1.21,2.89-1.33,3.64-1.33c4.28,0,5.09,3.58,5.09,6.76v16.24h7.05V75.11
		c0-5.67-3.24-9.65-9.37-9.65c-1.16,0-6.53,0.35-9.13,4.28v-3.41h-7.05v28.9h0.06v0H428.5z M255.58,66.32h-6.99v12.55
		c0,4.97-0.64,7.4-2.72,9.13c-1.45,1.21-2.89,1.33-3.64,1.33c-4.28,0-5.09-3.58-5.09-6.76V66.32h-7.05v20.12
		c0,5.67,3.24,9.65,9.37,9.65c1.16,0,6.53-0.35,9.13-4.28v3.41h7.05v-28.9L255.58,66.32L255.58,66.32z M249.13,139.76l5.9,3.41
		c-2.31,3.12-6.53,7.34-14.11,7.34c-8.61,0-14.86-5.9-14.86-15.49c0-10.35,7-15.15,14.51-15.15c11.04,0,14.22,8.85,14.22,16.71
		H233.4c0.12,1.45,1.45,7.17,8.15,7.17C246.47,143.75,248.55,140.74,249.13,139.76z M233.63,131.49h13.53
		c-0.12-1.44-1.04-6.07-6.47-6.07C234.96,125.42,233.86,130.34,233.63,131.49z M410.98,132.53l-4.68-0.87
		c-4.16-0.75-5.9-1.33-5.9-3.24c0-2.6,3.47-3.01,4.8-3.01c3.35,0,6.3,1.33,7.86,4.39l4.91-4.57c-4.34-5.03-10.17-5.38-12.43-5.38
		c-6.94,0-12.43,3.7-12.43,9.42c0,6.82,7.8,8.27,10.06,8.67l3.58,0.64c2.66,0.46,4.28,1.1,4.28,2.77c0,1.27-1.5,3.41-5.67,3.41
		c-4.34,0-6.94-1.85-8.32-3.7l-5.2,4.22c1.62,1.68,5.9,5.2,13.87,5.2c7.98,0,13.01-4.57,13.01-9.89
		C418.73,135.94,415.38,133.34,410.98,132.53z M440.87,132.53l-4.68-0.87c-4.16-0.75-5.9-1.33-5.9-3.24c0-2.6,3.47-3.01,4.8-3.01
		c3.35,0,6.3,1.33,7.86,4.39l4.91-4.57c-4.34-5.03-10.17-5.38-12.43-5.38c-6.94,0-12.43,3.7-12.43,9.42c0,6.82,7.8,8.27,10.06,8.67
		l3.58,0.64c2.66,0.46,4.28,1.1,4.28,2.77c0,1.27-1.5,3.41-5.67,3.41c-4.34,0-6.94-1.85-8.32-3.7l-5.2,4.22
		c1.62,1.68,5.9,5.2,13.87,5.2c7.98,0,13.01-4.57,13.01-9.89C448.61,135.94,445.26,133.34,440.87,132.53z M318.17,82.85
		c0-1.68,0-3.12,0.52-4.74c1.68-5.32,7.23-5.32,8.67-5.32v-7.11h-0.58c-1.39,0-6.42,0.17-8.61,4.74v-4.1h-7.05v28.9h7.05V82.85z
		 M348.44,124.84v-4.1h-7.05v28.9h7.05v-12.37c0-1.68,0-3.12,0.52-4.74c1.68-5.32,7.23-5.32,8.67-5.32v-7.11h-0.58
		C355.67,120.1,350.64,120.28,348.44,124.84z M389.25,135.19c-0.14,7.74-5.05,15.32-14.86,15.32c-9.81,0-14.71-7.58-14.86-15.32
		c0.14-7.74,5.05-15.32,14.86-15.32C384.2,119.87,389.1,127.45,389.25,135.19z M381.94,135.19c0-4.46-2.4-8.86-7.55-8.86
		c-5.15,0-7.55,4.4-7.55,8.86c0,4.46,2.4,8.86,7.55,8.86C379.54,144.05,381.94,139.65,381.94,135.19z M279.37,108.83h7.05v40.81
		h-7.05v-2.77c-0.58,0.69-2.89,3.64-8.04,3.64c-6.07,0-12.83-4.22-12.83-14.74c0-10.35,6.3-15.9,13.12-15.9
		c2.37,0,5.84,0.87,7.75,3.24V108.83z M279.55,135.19c0-4.46-2.2-8.86-6.91-8.86c-4.72,0-6.91,4.4-6.91,8.86
		c0,4.46,2.2,8.86,6.91,8.86C277.36,144.05,279.55,139.65,279.55,135.19z M306.79,95.22v-5.84c-0.87,0.23-1.91,0.35-2.89,0.35
		c-0.29,0-1.79,0-2.6-0.87c-0.64-0.69-0.69-1.97-0.69-3.06V71.23h6.19v-4.91h-6.19V56.03h-7.05v10.29h-4.22v4.91h4.22v17.23
		c0,4.74,1.97,7.63,8.15,7.63C304.07,96.09,305.88,95.46,306.79,95.22z M348.68,93.01c-1.91,1.5-4.97,3.08-8.5,3.08
		c-6.59,0-10.52-4.12-10.52-8.98c0-6.3,4.8-8.79,10.29-9.77c4.34-0.81,7.05-1.5,8.9-2.14c0-2.2-0.64-4.34-4.97-4.34
		c-5.26,0-5.84,2.83-5.84,4.34l-7.05-0.4c0.12-1.91,0.52-9.35,12.66-9.35c8.5,0,12.14,3.17,12.14,8.25v16.88
		c0,2.18,0.12,2.82,1.25,4.64h-8.19L348.68,93.01z M348.86,84.75v-3.87c-1.16,0.58-2.83,1.21-5.49,1.62
		c-3.18,0.46-6.36,1.1-6.36,3.99c0,1.91,1.27,3.53,4.74,3.53C344.93,90.01,348.86,88.39,348.86,84.75z M399.35,96.09
		c-6.59,0-10.52-4.12-10.52-8.98c0-6.3,4.8-8.79,10.29-9.77c4.34-0.81,7.05-1.5,8.9-2.14c0-2.2-0.64-4.34-4.97-4.34
		c-5.26,0-5.84,2.83-5.84,4.34l-7.05-0.4c0.12-1.91,0.52-9.35,12.66-9.35c8.5,0,12.14,3.17,12.14,8.25v16.88
		c0,2.18,0.12,2.82,1.25,4.64h-8.19l-0.17-2.21C405.94,94.52,402.88,96.09,399.35,96.09z M400.91,90.01c3.18,0,7.11-1.62,7.11-5.26
		v-3.87c-1.16,0.58-2.83,1.21-5.49,1.62c-3.18,0.46-6.36,1.1-6.36,3.99C396.17,88.39,397.44,90.01,400.91,90.01z M383.76,54.41
		h-7.05v6.82h7.05V54.41z M383.76,66.32h-7.05v28.9h7.05V66.32z M212.12,54.41l13.82,40.81h-8.21l-2.37-7.98h-15.26l-2.37,7.98
		h-8.21l13.82-40.81H212.12z M213.33,80.54l-5.61-18.6l-5.61,18.6H213.33z M215.99,132.99l9.08,16.65h-8.73l-8.04-15.15h-6.88v15.15
		h-7.57v-40.81h16.71c8.04,0,13.47,5.26,13.47,12.95C224.03,125.71,222.46,130.86,215.99,132.99z M216.28,121.84
		c0-4.31-3.01-6.19-7.92-6.19h-6.94v12.49h5.9C212.81,128.14,216.28,126.55,216.28,121.84z M320.63,143.34
		c-9.08,0-11.33-8.89-11.33-14.39c0-9,4.74-14.05,11.39-14.05c4.51,0,8.27,3.1,8.73,7.51l7.57-1.95c-1.73-5.79-6.07-12.5-16.59-12.5
		c-14.22,0-19.37,11.87-19.37,20.87c0,15.14,9.42,21.68,19.08,21.68c11.74,0,16.3-8.89,17.63-12.33l-7.23-2.98
		C329.31,139.33,325.9,143.34,320.63,143.34z"/>
	<polygon class="st0" points="163.24,81.62 122.44,81.62 122.44,40.81 81.62,40.81 81.62,81.62 40.81,81.62 40.81,122.43 
		81.62,122.43 81.62,163.24 122.44,163.24 122.44,122.43 163.24,122.43 	"/>
</g>
</svg>
